<svg width="32" height="25" viewBox="0 0 32 25" fill="none" xmlns="http://www.w3.org/2000/svg">
<path d="M10.1943 2.51787C10.5668 3.05881 10.568 3.7732 10.1973 4.31536L5.72803 10.852C5.03 11.8729 5.03 13.2175 5.72803 14.2384L10.1973 20.775C10.568 21.3172 10.5668 22.0316 10.1943 22.5725C9.56177 23.4912 8.20422 23.489 7.57468 22.5682L1.87937 14.2384C1.18133 13.2175 1.18133 11.8729 1.87936 10.852L7.57468 2.52219C8.20422 1.60145 9.56177 1.59921 10.1943 2.51787Z" fill="#909090"/>
<path d="M20.6113 2.51787C20.9838 3.05881 20.985 3.7732 20.6143 4.31536L16.145 10.852C15.447 11.8729 15.447 13.2175 16.145 14.2384L20.6143 20.775C20.985 21.3172 20.9838 22.0316 20.6113 22.5725C19.9788 23.4912 18.6212 23.489 17.9917 22.5682L12.2964 14.2384C11.5983 13.2175 11.5983 11.8729 12.2964 10.852L17.9917 2.52219C18.6212 1.60145 19.9788 1.59921 20.6113 2.51787Z" fill="#909090"/>
<path d="M31.0283 2.51787C31.4008 3.05881 31.402 3.7732 31.0313 4.31536L26.562 10.852C25.864 11.8729 25.864 13.2175 26.562 14.2384L31.0313 20.775C31.402 21.3172 31.4008 22.0316 31.0283 22.5725C30.3958 23.4912 29.0382 23.489 28.4087 22.5682L22.7133 14.2384C22.0153 13.2175 22.0153 11.8729 22.7133 10.852L28.4087 2.52219C29.0382 1.60145 30.3958 1.59921 31.0283 2.51787Z" fill="#909090"/>
</svg>
