<svg width="31" height="24" viewBox="0 0 31 24" fill="none" xmlns="http://www.w3.org/2000/svg">
<path d="M21.5122 22.1414C21.1328 21.599 21.1316 20.8777 21.5092 20.334L25.9347 13.9612C26.6492 12.9323 26.6492 11.5677 25.9347 10.5388L21.5092 4.16601C21.1316 3.62234 21.1328 2.901 21.5122 2.35858C22.1426 1.45712 23.4782 1.45934 24.1057 2.36288L29.7834 10.5388C30.4979 11.5677 30.4979 12.9323 29.7834 13.9612L24.1057 22.1371C23.4782 23.0407 22.1426 23.0429 21.5122 22.1414Z" fill="#919191"/>
<path d="M11.0952 22.1414C10.7158 21.599 10.7146 20.8777 11.0922 20.334L15.5177 13.9612C16.2323 12.9323 16.2323 11.5677 15.5177 10.5388L11.0922 4.16601C10.7146 3.62234 10.7158 2.901 11.0952 2.35858C11.7256 1.45712 13.0612 1.45934 13.6887 2.36288L19.3664 10.5388C20.0809 11.5677 20.0809 12.9323 19.3664 13.9612L13.6887 22.1371C13.0612 23.0407 11.7256 23.0429 11.0952 22.1414Z" fill="#919191"/>
<path d="M0.67915 22.1414C0.299801 21.599 0.298606 20.8777 0.676154 20.334L5.10172 13.9612C5.81624 12.9323 5.81624 11.5677 5.10172 10.5388L0.676156 4.16601C0.298608 3.62234 0.299803 2.901 0.679152 2.35858C1.30961 1.45712 2.64519 1.45934 3.27266 2.36288L8.95038 10.5388C9.6649 11.5677 9.6649 12.9323 8.95039 13.9612L3.27265 22.1371C2.64519 23.0407 1.3096 23.0429 0.67915 22.1414Z" fill="#919191"/>
</svg>
