<svg width="17" height="17" viewBox="0 0 17 17" fill="none" xmlns="http://www.w3.org/2000/svg">
<path d="M8.35333 0.14917C9.43995 0.14917 10.4821 0.570597 11.2504 1.32074C12.0188 2.07089 12.4504 3.0883 12.4504 4.14917C12.4504 5.21004 12.0188 6.22745 11.2504 6.9776C10.4821 7.72774 9.43995 8.14917 8.35333 8.14917C7.26672 8.14917 6.22461 7.72774 5.45626 6.9776C4.68791 6.22745 4.25626 5.21004 4.25626 4.14917C4.25626 3.0883 4.68791 2.07089 5.45626 1.32074C6.22461 0.570597 7.26672 0.14917 8.35333 0.14917ZM8.35333 10.1492C12.8806 10.1492 16.5475 11.9392 16.5475 14.1492C16.5475 15.2537 15.6521 16.1492 14.5475 16.1492H2.15918C1.05461 16.1492 0.15918 15.2537 0.15918 14.1492C0.15918 11.9392 3.82606 10.1492 8.35333 10.1492Z" fill="#828282"/>
</svg>
